<svg width="55" height="44" viewBox="0 0 55 44" fill="none" xmlns="http://www.w3.org/2000/svg">
<path d="M19.8378 9.96814C18.8489 9.96814 17.8822 10.2614 17.06 10.8108C16.2377 11.3602 15.5969 12.1411 15.2184 13.0547C14.84 13.9684 14.741 14.9737 14.9339 15.9436C15.1268 16.9135 15.603 17.8044 16.3023 18.5037C17.0016 19.2029 17.8925 19.6791 18.8624 19.8721C19.8323 20.065 20.8376 19.966 21.7512 19.5875C22.6649 19.2091 23.4458 18.5682 23.9952 17.746C24.5446 16.9237 24.8378 15.957 24.8378 14.9681C24.8363 13.6425 24.3091 12.3716 23.3717 11.4343C22.4343 10.4969 21.1635 9.96965 19.8378 9.96814ZM19.8378 17.4681C19.3434 17.4681 18.86 17.3215 18.4489 17.0468C18.0378 16.7721 17.7174 16.3817 17.5281 15.9248C17.3389 15.468 17.2894 14.9654 17.3859 14.4804C17.4823 13.9955 17.7204 13.55 18.0701 13.2004C18.4197 12.8507 18.8652 12.6126 19.3501 12.5162C19.8351 12.4197 20.3377 12.4692 20.7945 12.6584C21.2514 12.8477 21.6418 13.1681 21.9165 13.5792C22.1912 13.9903 22.3378 14.4737 22.3378 14.9681C22.3371 15.6309 22.0734 16.2664 21.6048 16.7351C21.1361 17.2037 20.5006 17.4674 19.8378 17.4681Z" fill="black"/>
<path d="M29.4458 5.35279C27.0702 2.97783 23.8991 1.567 20.5445 1.3926C17.1899 1.21821 13.8896 2.29261 11.2806 4.40844C8.67156 6.52427 6.93875 9.53155 6.4166 12.8499C5.89445 16.1682 6.61997 19.5623 8.45315 22.3771L17.899 36.8781C18.1092 37.2008 18.3966 37.4659 18.7352 37.6494C19.0738 37.8329 19.4528 37.929 19.8379 37.929C20.223 37.929 20.602 37.8329 20.9406 37.6494C21.2791 37.4659 21.5665 37.2008 21.7767 36.8781L31.2229 22.3771C32.9239 19.7659 33.6756 16.6494 33.3521 13.5499C33.0285 10.4505 31.6494 7.55638 29.4458 5.35279ZM29.1282 21.0125L19.8379 35.2742L10.5475 21.0125C7.70377 16.6469 8.31369 10.8047 11.9978 7.12053C13.0273 6.09093 14.2496 5.2742 15.5948 4.71698C16.9401 4.15976 18.3819 3.87296 19.8379 3.87296C21.294 3.87296 22.7358 4.15976 24.081 4.71698C25.4262 5.2742 26.6485 6.09093 27.6781 7.12053C31.3621 10.8047 31.972 16.6469 29.1282 21.0125Z" fill="black"/>
<path d="M34.8378 13.9681C33.8489 13.9681 32.8822 14.2614 32.06 14.8108C31.2377 15.3602 30.5969 16.1411 30.2184 17.0547C29.84 17.9684 29.741 18.9737 29.9339 19.9436C30.1268 20.9135 30.603 21.8044 31.3023 22.5037C32.0016 23.2029 32.8925 23.6791 33.8624 23.8721C34.8323 24.065 35.8376 23.966 36.7512 23.5875C37.6649 23.2091 38.4458 22.5682 38.9952 21.746C39.5446 20.9237 39.8378 19.957 39.8378 18.9681C39.8363 17.6425 39.3091 16.3716 38.3717 15.4343C37.4343 14.4969 36.1635 13.9696 34.8378 13.9681ZM34.8378 21.4681C34.3434 21.4681 33.86 21.3215 33.4489 21.0468C33.0378 20.7721 32.7174 20.3817 32.5281 19.9248C32.3389 19.468 32.2894 18.9654 32.3859 18.4804C32.4823 17.9955 32.7204 17.55 33.0701 17.2004C33.4197 16.8507 33.8652 16.6126 34.3501 16.5162C34.8351 16.4197 35.3377 16.4692 35.7945 16.6584C36.2514 16.8477 36.6418 17.1681 36.9165 17.5792C37.1912 17.9903 37.3378 18.4737 37.3378 18.9681C37.3371 19.6309 37.0734 20.2664 36.6048 20.7351C36.1361 21.2037 35.5006 21.4674 34.8378 21.4681Z" fill="black"/>
<path d="M44.4458 9.35279C42.0702 6.97783 38.8991 5.567 35.5445 5.3926C32.1899 5.21821 28.8896 6.29261 26.2806 8.40844C23.6716 10.5243 21.9387 13.5315 21.4166 16.8499C20.8944 20.1682 21.62 23.5623 23.4531 26.3771L32.899 40.8781C33.1092 41.2008 33.3966 41.4659 33.7352 41.6494C34.0738 41.8329 34.4528 41.929 34.8379 41.929C35.223 41.929 35.602 41.8329 35.9406 41.6494C36.2791 41.4659 36.5665 41.2008 36.7767 40.8781L46.2229 26.3771C47.9239 23.7659 48.6756 20.6494 48.3521 17.5499C48.0285 14.4505 46.6494 11.5564 44.4458 9.35279ZM44.1282 25.0125L34.8379 39.2742L25.5475 25.0125C22.7038 20.6469 23.3137 14.8047 26.9978 11.1205C28.0273 10.0909 29.2496 9.2742 30.5948 8.71698C31.9401 8.15976 33.3819 7.87296 34.8379 7.87296C36.294 7.87296 37.7358 8.15976 39.081 8.71698C40.4262 9.2742 41.6485 10.0909 42.6781 11.1205C46.3621 14.8047 46.972 20.6469 44.1282 25.0125Z" fill="black"/>
</svg>
