<svg width="72" height="40" viewBox="0 0 72 40" fill="none" xmlns="http://www.w3.org/2000/svg">
<path d="M20 0C18.0325 0 16.77 1.48 16.07 2.8775C15.3775 4.3208 15.0121 5.89919 15 7.5V16.7275L10 19.2275V18.75C10 18.4185 9.8683 18.1005 9.63388 17.8661C9.39946 17.6317 9.08152 17.5 8.75 17.5H6.25C5.91848 17.5 5.60054 17.6317 5.36612 17.8661C5.1317 18.1005 5 18.4185 5 18.75V21.7275L2.075 23.19C1.45158 23.5012 0.92721 23.98 0.560696 24.5726C0.194181 25.1652 2.35375e-05 25.8482 0 26.545L0 30C8.3525e-05 30.1814 0.0396693 30.3607 0.116007 30.5253C0.192345 30.6899 0.303605 30.8359 0.442058 30.9532C0.580511 31.0705 0.742837 31.1562 0.917759 31.2045C1.09268 31.2527 1.27601 31.2623 1.455 31.2325L5.5325 30.5525L6.315 32.895C6.39835 33.1433 6.55758 33.3591 6.77021 33.512C6.98283 33.6649 7.23811 33.7472 7.5 33.7472C7.76189 33.7472 8.01717 33.6649 8.2298 33.512C8.44242 33.3591 8.60165 33.1433 8.685 32.895L9.6975 29.86L15.2225 28.9375L16.16 34.57L12.865 37.865C12.6897 38.0398 12.5703 38.2628 12.5219 38.5055C12.4735 38.7483 12.4982 39 12.593 39.2287C12.6878 39.4573 12.8484 39.6527 13.0544 39.7901C13.2603 39.9274 13.5024 40.0004 13.75 40H26.25C26.4976 40.0004 26.7397 39.9274 26.9456 39.7901C27.1516 39.6527 27.3122 39.4573 27.407 39.2287C27.5018 39 27.5265 38.7483 27.4781 38.5055C27.4297 38.2628 27.3103 38.0398 27.135 37.865L23.84 34.57L24.7775 28.9375L30.3025 29.86L31.315 32.895C31.3984 33.1433 31.5576 33.3591 31.7702 33.512C31.9828 33.6649 32.2381 33.7472 32.5 33.7472C32.7619 33.7472 33.0172 33.6649 33.2298 33.512C33.4424 33.3591 33.6016 33.1433 33.685 32.895L34.4675 30.5525L38.5425 31.2325C38.7217 31.2627 38.9053 31.2534 39.0805 31.2054C39.2557 31.1573 39.4184 31.0716 39.5571 30.9543C39.6959 30.837 39.8074 30.6908 39.8839 30.526C39.9603 30.3612 40 30.1817 40 30V26.545C40 25.8482 39.8058 25.1652 39.4393 24.5726C39.0728 23.98 38.5484 23.5012 37.925 23.19L35 21.7275V18.75C35 18.4185 34.8683 18.1005 34.6339 17.8661C34.3995 17.6317 34.0815 17.5 33.75 17.5H31.25C30.9185 17.5 30.6005 17.6317 30.3661 17.8661C30.1317 18.1005 30 18.4185 30 18.75V19.2275L25 16.7275V7.5C25 6.08 24.65 4.3225 23.93 2.8775C23.23 1.4775 21.9675 0 20 0ZM17.5 7.5C17.5 6.42 17.775 5.0525 18.305 3.9975C18.855 2.8975 19.4675 2.5 20 2.5C20.5325 2.5 21.145 2.895 21.695 3.9975C22.2225 5.05 22.5 6.4225 22.5 7.5V17.5C22.5 17.7319 22.5646 17.9593 22.6864 18.1567C22.8083 18.354 22.9826 18.5136 23.19 18.6175L36.81 25.4275C37.0174 25.5314 37.1917 25.691 37.3136 25.8883C37.4355 26.0857 37.5 26.3131 37.5 26.545V28.525L23.955 26.2675C23.6285 26.2132 23.2938 26.2907 23.0243 26.4828C22.7549 26.675 22.5726 26.9661 22.5175 27.2925L21.2675 34.7925C21.2344 34.9893 21.2489 35.1912 21.3098 35.3813C21.3707 35.5713 21.4762 35.7441 21.6175 35.885L23.2325 37.5H16.7675L18.385 35.885C18.5259 35.7443 18.6312 35.572 18.6921 35.3824C18.753 35.1928 18.7677 34.9914 18.735 34.795L17.485 27.295C17.458 27.1329 17.3994 26.9778 17.3124 26.8384C17.2254 26.699 17.1118 26.5782 16.978 26.4827C16.8443 26.3873 16.693 26.3192 16.5329 26.2822C16.3728 26.2453 16.207 26.2403 16.045 26.2675L2.5 28.525V26.545C2.50001 26.3131 2.56455 26.0857 2.68641 25.8883C2.80827 25.691 2.98263 25.5314 3.19 25.4275L16.81 18.6175C17.0174 18.5136 17.1917 18.354 17.3136 18.1567C17.4354 17.9593 17.5 17.7319 17.5 17.5V7.5Z" fill="black"/>
<path d="M52 40C53.9675 40 55.23 38.52 55.93 37.1225C56.6225 35.6792 56.9879 34.1008 57 32.5V23.2725L62 20.7725V21.25C62 21.5815 62.1317 21.8995 62.3661 22.1339C62.6005 22.3683 62.9185 22.5 63.25 22.5H65.75C66.0815 22.5 66.3995 22.3683 66.6339 22.1339C66.8683 21.8995 67 21.5815 67 21.25V18.2725L69.925 16.81C70.5484 16.4988 71.0728 16.02 71.4393 15.4274C71.8058 14.8348 72 14.1518 72 13.455V10C71.9999 9.81855 71.9603 9.6393 71.884 9.47469C71.8077 9.31008 71.6964 9.16406 71.5579 9.04678C71.4195 8.9295 71.2572 8.84377 71.0822 8.79554C70.9073 8.74731 70.724 8.73774 70.545 8.7675L66.4675 9.4475L65.685 7.105C65.6016 6.85672 65.4424 6.6409 65.2298 6.488C65.0172 6.33509 64.7619 6.25284 64.5 6.25284C64.2381 6.25284 63.9828 6.33509 63.7702 6.488C63.5576 6.6409 63.3984 6.85672 63.315 7.105L62.3025 10.14L56.7775 11.0625L55.84 5.43L59.135 2.135C59.3103 1.96017 59.4297 1.73725 59.4781 1.49448C59.5265 1.25171 59.5018 1.00002 59.407 0.771339C59.3122 0.54266 59.1516 0.347271 58.9456 0.209949C58.7397 0.072628 58.4976 -0.000442505 58.25 0H45.75C45.5024 -0.000442505 45.2603 0.072628 45.0544 0.209949C44.8484 0.347271 44.6878 0.54266 44.593 0.771339C44.4982 1.00002 44.4735 1.25171 44.5219 1.49448C44.5703 1.73725 44.6897 1.96017 44.865 2.135L48.16 5.43L47.2225 11.0625L41.6975 10.14L40.685 7.105C40.6016 6.85672 40.4424 6.6409 40.2298 6.488C40.0172 6.33509 39.7619 6.25284 39.5 6.25284C39.2381 6.25284 38.9828 6.33509 38.7702 6.488C38.5576 6.6409 38.3984 6.85672 38.315 7.105L37.5325 9.4475L33.4575 8.7675C33.2783 8.73734 33.0947 8.7466 32.9195 8.79464C32.7443 8.84269 32.5816 8.92835 32.4429 9.04568C32.3041 9.163 32.1926 9.30916 32.1161 9.47398C32.0397 9.63879 32 9.8183 32 10V13.455C32 14.1518 32.1942 14.8348 32.5607 15.4274C32.9272 16.02 33.4516 16.4988 34.075 16.81L37 18.2725V21.25C37 21.5815 37.1317 21.8995 37.3661 22.1339C37.6005 22.3683 37.9185 22.5 38.25 22.5H40.75C41.0815 22.5 41.3995 22.3683 41.6339 22.1339C41.8683 21.8995 42 21.5815 42 21.25V20.7725L47 23.2725V32.5C47 33.92 47.35 35.6775 48.07 37.1225C48.77 38.5225 50.0325 40 52 40ZM54.5 32.5C54.5 33.58 54.225 34.9475 53.695 36.0025C53.145 37.1025 52.5325 37.5 52 37.5C51.4675 37.5 50.855 37.105 50.305 36.0025C49.7775 34.95 49.5 33.5775 49.5 32.5V22.5C49.5 22.2681 49.4354 22.0407 49.3136 21.8433C49.1917 21.646 49.0174 21.4864 48.81 21.3825L35.19 14.5725C34.9826 14.4686 34.8083 14.309 34.6864 14.1117C34.5645 13.9143 34.5 13.6869 34.5 13.455V11.475L48.045 13.7325C48.3715 13.7868 48.7062 13.7093 48.9757 13.5172C49.2451 13.325 49.4274 13.0339 49.4825 12.7075L50.7325 5.2075C50.7656 5.01068 50.7511 4.8088 50.6902 4.61873C50.6293 4.42866 50.5238 4.25594 50.3825 4.115L48.7675 2.5H55.2325L53.615 4.115C53.4741 4.25567 53.3688 4.42798 53.3079 4.61758C53.247 4.80717 53.2323 5.00857 53.265 5.205L54.515 12.705C54.542 12.8671 54.6006 13.0222 54.6876 13.1616C54.7746 13.301 54.8882 13.4218 55.022 13.5173C55.1557 13.6127 55.307 13.6808 55.4671 13.7178C55.6272 13.7547 55.793 13.7597 55.955 13.7325L69.5 11.475V13.455C69.5 13.6869 69.4354 13.9143 69.3136 14.1117C69.1917 14.309 69.0174 14.4686 68.81 14.5725L55.19 21.3825C54.9826 21.4864 54.8083 21.646 54.6864 21.8433C54.5646 22.0407 54.5 22.2681 54.5 22.5V32.5Z" fill="black"/>
</svg>
