<svg width="40" height="40" viewBox="0 0 40 40" fill="none" xmlns="http://www.w3.org/2000/svg">
<path d="M20 0C18.0325 0 16.77 1.48 16.07 2.8775C15.3775 4.3208 15.0121 5.89919 15 7.5V16.7275L10 19.2275V18.75C10 18.4185 9.8683 18.1005 9.63388 17.8661C9.39946 17.6317 9.08152 17.5 8.75 17.5H6.25C5.91848 17.5 5.60054 17.6317 5.36612 17.8661C5.1317 18.1005 5 18.4185 5 18.75V21.7275L2.075 23.19C1.45158 23.5012 0.92721 23.98 0.560696 24.5726C0.194181 25.1652 2.35375e-05 25.8482 0 26.545L0 30C8.3525e-05 30.1814 0.0396693 30.3607 0.116007 30.5253C0.192345 30.6899 0.303605 30.8359 0.442058 30.9532C0.580511 31.0705 0.742837 31.1562 0.917759 31.2045C1.09268 31.2527 1.27601 31.2623 1.455 31.2325L5.5325 30.5525L6.315 32.895C6.39835 33.1433 6.55758 33.3591 6.77021 33.512C6.98283 33.6649 7.23811 33.7472 7.5 33.7472C7.76189 33.7472 8.01717 33.6649 8.2298 33.512C8.44242 33.3591 8.60165 33.1433 8.685 32.895L9.6975 29.86L15.2225 28.9375L16.16 34.57L12.865 37.865C12.6897 38.0398 12.5703 38.2628 12.5219 38.5055C12.4735 38.7483 12.4982 39 12.593 39.2287C12.6878 39.4573 12.8484 39.6527 13.0544 39.7901C13.2603 39.9274 13.5024 40.0004 13.75 40H26.25C26.4976 40.0004 26.7397 39.9274 26.9456 39.7901C27.1516 39.6527 27.3122 39.4573 27.407 39.2287C27.5018 39 27.5265 38.7483 27.4781 38.5055C27.4297 38.2628 27.3103 38.0398 27.135 37.865L23.84 34.57L24.7775 28.9375L30.3025 29.86L31.315 32.895C31.3984 33.1433 31.5576 33.3591 31.7702 33.512C31.9828 33.6649 32.2381 33.7472 32.5 33.7472C32.7619 33.7472 33.0172 33.6649 33.2298 33.512C33.4424 33.3591 33.6016 33.1433 33.685 32.895L34.4675 30.5525L38.5425 31.2325C38.7217 31.2627 38.9053 31.2534 39.0805 31.2054C39.2557 31.1573 39.4184 31.0716 39.5571 30.9543C39.6959 30.837 39.8074 30.6908 39.8839 30.526C39.9603 30.3612 40 30.1817 40 30V26.545C40 25.8482 39.8058 25.1652 39.4393 24.5726C39.0728 23.98 38.5484 23.5012 37.925 23.19L35 21.7275V18.75C35 18.4185 34.8683 18.1005 34.6339 17.8661C34.3995 17.6317 34.0815 17.5 33.75 17.5H31.25C30.9185 17.5 30.6005 17.6317 30.3661 17.8661C30.1317 18.1005 30 18.4185 30 18.75V19.2275L25 16.7275V7.5C25 6.08 24.65 4.3225 23.93 2.8775C23.23 1.4775 21.9675 0 20 0ZM17.5 7.5C17.5 6.42 17.775 5.0525 18.305 3.9975C18.855 2.8975 19.4675 2.5 20 2.5C20.5325 2.5 21.145 2.895 21.695 3.9975C22.2225 5.05 22.5 6.4225 22.5 7.5V17.5C22.5 17.7319 22.5646 17.9593 22.6864 18.1567C22.8083 18.354 22.9826 18.5136 23.19 18.6175L36.81 25.4275C37.0174 25.5314 37.1917 25.691 37.3136 25.8883C37.4355 26.0857 37.5 26.3131 37.5 26.545V28.525L23.955 26.2675C23.6285 26.2132 23.2938 26.2907 23.0243 26.4828C22.7549 26.675 22.5726 26.9661 22.5175 27.2925L21.2675 34.7925C21.2344 34.9893 21.2489 35.1912 21.3098 35.3813C21.3707 35.5713 21.4762 35.7441 21.6175 35.885L23.2325 37.5H16.7675L18.385 35.885C18.5259 35.7443 18.6312 35.572 18.6921 35.3824C18.753 35.1928 18.7677 34.9914 18.735 34.795L17.485 27.295C17.458 27.1329 17.3994 26.9778 17.3124 26.8384C17.2254 26.699 17.1118 26.5782 16.978 26.4827C16.8443 26.3873 16.693 26.3192 16.5329 26.2822C16.3728 26.2453 16.207 26.2403 16.045 26.2675L2.5 28.525V26.545C2.50001 26.3131 2.56455 26.0857 2.68641 25.8883C2.80827 25.691 2.98263 25.5314 3.19 25.4275L16.81 18.6175C17.0174 18.5136 17.1917 18.354 17.3136 18.1567C17.4354 17.9593 17.5 17.7319 17.5 17.5V7.5Z" fill="black"/>
</svg>
